<svg width="178" height="52" viewBox="0 0 178 52" fill="none" xmlns="http://www.w3.org/2000/svg">
<rect x="0.25" y="0.25" width="51.5" height="51.5" rx="25.75" stroke="#61852D" stroke-opacity="0.3" stroke-width="0.5"/>
<path d="M34.8384 34.0844C29.2975 43.5206 15.9802 46.4708 10.079 40.8042C7.83803 35.2872 9.77692 30.0256 21.0719 28.0303C32.3669 26.035 28.6522 16.044 35.5607 15.3237C41.9734 17.4277 39.6389 25.909 34.8384 34.0844Z" fill="#501845"/>
<path d="M41.7419 19.1876C41.2654 20.0486 40.6027 20.291 39.3143 20.291C38.2173 20.291 37.7924 17.7404 37.7924 16.6434C37.8259 15.2977 38.8752 16.924 39.7557 18.0841C40.785 18.8609 41.5443 18.1883 41.7419 19.1876Z" fill="#61852D"/>
<path d="M41.7419 19.1876C41.2654 20.0486 40.6027 20.291 39.3143 20.291C38.2173 20.291 37.7924 17.7404 37.7924 16.6434C37.8259 15.2977 38.8752 16.924 39.7557 18.0841C40.785 18.8609 41.5443 18.1883 41.7419 19.1876Z" fill="#61852D"/>
<path d="M41.7419 19.1876C41.2654 20.0486 40.6027 20.291 39.3143 20.291C38.2173 20.291 37.7924 17.7404 37.7924 16.6434C37.8259 15.2977 38.8752 16.924 39.7557 18.0841C40.785 18.8609 41.5443 18.1883 41.7419 19.1876Z" fill="#61852D"/>
<path d="M34.0406 17.7469C34.5627 18.7117 33.1578 19.7332 31.613 20.5564C31.3923 20.6482 28.7036 21.5529 28.6522 20.5564C28.9049 20.057 29.9241 19.5703 31.7902 16.7822C33.4891 15.5795 33.554 16.8476 34.0406 17.7469Z" fill="#61852D"/>
<path d="M38.8527 20.291C38.6756 21.3998 38.5483 22.8153 37.3515 23.2643C36.3818 23.0876 35.4145 20.719 35.7062 20.3302C36.4683 19.0711 36.2545 18.409 37.3515 18.409C38.4484 18.409 38.8527 19.1941 38.8527 20.291Z" fill="#61852D"/>
<path d="M38.8527 20.291C38.6756 21.3998 38.5483 22.8153 37.3515 23.2643C36.3818 23.0876 35.4145 20.719 35.7062 20.3302C36.4683 19.0711 36.2545 18.409 37.3515 18.409C38.4484 18.409 38.8527 19.1941 38.8527 20.291Z" fill="#61852D"/>
<path d="M38.8527 20.291C38.6756 21.3998 38.5483 22.8153 37.3515 23.2643C36.3818 23.0876 35.4145 20.719 35.7062 20.3302C36.4683 19.0711 36.2545 18.409 37.3515 18.409C38.4484 18.409 38.8527 19.1941 38.8527 20.291Z" fill="#61852D"/>
<path d="M35.8062 20.616C35.2786 21.599 34.2613 23.485 33.1582 23.485C32.3749 22.8959 32.1508 21.1827 32.2751 20.3302C32.2751 19.2332 33.3854 18.409 34.4824 18.409C35.5794 18.409 35.8062 19.519 35.8062 20.616Z" fill="#61852D"/>
<path d="M35.8062 20.616C35.2786 21.599 34.2613 23.485 33.1582 23.485C32.3749 22.8959 32.1508 21.1827 32.2751 20.3302C32.2751 19.2332 33.3854 18.409 34.4824 18.409C35.5794 18.409 35.8062 19.519 35.8062 20.616Z" fill="#61852D"/>
<path d="M35.8062 20.616C35.2786 21.599 34.2613 23.485 33.1582 23.485C32.3749 22.8959 32.1508 21.1827 32.2751 20.3302C32.2751 19.2332 33.3854 18.409 34.4824 18.409C35.5794 18.409 35.8062 19.519 35.8062 20.616Z" fill="#61852D"/>
<path d="M38.8959 17.3055C38.8959 18.4025 36.4618 20.8367 35.3648 20.8367C34.2678 20.8367 31.613 18.4025 31.613 17.3055C31.613 16.2085 34.2613 14.8779 35.3648 15.0986C36.4683 14.8779 38.8959 16.2085 38.8959 17.3055Z" fill="#61852D"/>
<path d="M38.8959 17.3055C38.8959 18.4025 36.4618 20.8367 35.3648 20.8367C34.2678 20.8367 31.613 18.4025 31.613 17.3055C31.613 16.2085 34.2613 14.8779 35.3648 15.0986C36.4683 14.8779 38.8959 16.2085 38.8959 17.3055Z" fill="#61852D"/>
<path d="M38.8959 17.3055C38.8959 18.4025 36.4618 20.8367 35.3648 20.8367C34.2678 20.8367 31.613 18.4025 31.613 17.3055C31.613 16.2085 34.2613 14.8779 35.3648 15.0986C36.4683 14.8779 38.8959 16.2085 38.8959 17.3055Z" fill="#61852D"/>
<path d="M31.9682 8.6507C31.8469 8.49538 31.8712 8.31639 32.0682 8.31987C32.2339 8.32281 32.4016 8.35038 32.4016 8.35038C33.1201 8.47146 36.0711 11.7959 36.4332 15.0325C36.4631 15.2995 36.2293 15.5117 35.9625 15.48L35.1128 15.3792C34.8822 15.3518 34.7141 15.1505 34.7059 14.9184C34.6174 12.3937 32.659 9.53502 31.9682 8.6507Z" fill="#61852D"/>
<path d="M85.2888 26.424H82.8888V35.496H78.8328V15H82.8888V22.488H85.2888V26.424ZM64.2168 15.48H75.8088V21.024C75.8088 23.776 75.3368 26.168 74.3928 28.2C73.4488 30.232 72.1048 31.8 70.3608 32.904C68.6168 33.992 66.5688 34.536 64.2168 34.536V30.696C66.6488 30.68 68.4968 29.824 69.7608 28.128C71.0408 26.432 71.6808 24.064 71.6808 21.024V19.176H64.2168V15.48ZM106.551 15V35.496H102.495V15H106.551ZM96.3748 19.2C96.3268 21.04 96.1588 22.744 95.8708 24.312L101.823 32.04L98.6068 34.44L94.4788 28.824C93.6468 30.648 92.5908 32.048 91.3108 33.024C90.0468 34.016 88.6388 34.52 87.0868 34.536V30.456C88.0788 30.344 88.9588 29.816 89.7268 28.872C90.4948 27.912 91.1028 26.6 91.5508 24.936C91.9988 23.272 92.2468 21.36 92.2948 19.2H87.6628V15.48H100.767V19.2H96.3748ZM138.187 26.424H135.787V35.496H131.731V15H135.787V22.488H138.187V26.424ZM117.235 15.48H129.163V34.536H117.235V15.48ZM121.291 30.768H125.107V19.248H121.291V30.768ZM160.025 29.472H156.233V15H160.025V29.472ZM148.649 23.352C147.993 25.016 146.897 26.288 145.361 27.168C143.825 28.048 141.993 28.488 139.865 28.488V25.08C141.097 25.064 142.105 24.912 142.889 24.624C143.673 24.336 144.273 23.888 144.689 23.28H139.865V19.992H145.553V19.656V18.6H139.865V15.24L149.297 15.24V19.632V19.656H151.073V15.096H154.817V26.448H151.073V23.352H148.649ZM159.641 35.736L150.401 32.376C149.217 33.4 147.801 34.176 146.153 34.704C144.521 35.232 142.793 35.496 140.969 35.496V31.704C142.329 31.704 143.593 31.512 144.761 31.128C145.945 30.744 146.937 30.192 147.737 29.472C148.537 28.752 149.073 27.896 149.345 26.904L153.401 27.696C153.241 28.336 153.001 28.944 152.681 29.52L160.961 32.16L159.641 35.736Z" fill="#501845"/>
</svg>
